<svg width="1600" height="1050" viewBox="0 0 1600 1050" fill="none" xmlns="http://www.w3.org/2000/svg">
  <defs>
    <linearGradient id="bg" x1="0" y1="0" x2="0" y2="1">
      <stop offset="0%" stop-color="#F6F2ED"/>
      <stop offset="100%" stop-color="#E8F0F7"/>
    </linearGradient>
    <filter id="shadow" x="-20%" y="-20%" width="140%" height="140%">
      <feDropShadow dx="0" dy="6" stdDeviation="8" flood-color="#000000" flood-opacity="0.16"/>
    </filter>
    <marker id="arrow" markerWidth="12" markerHeight="12" refX="10" refY="6" orient="auto">
      <path d="M0,0 L12,6 L0,12 Z" fill="#2E3A44"/>
    </marker>
    <style>
      .title { font-family: "Source Sans 3", "DejaVu Sans", Arial, sans-serif; font-size: 36px; font-weight: 700; fill: #0B3954; }
      .label { font-family: "Source Sans 3", "DejaVu Sans", Arial, sans-serif; font-size: 22px; font-weight: 700; fill: #35505E; }
      .box-title { font-family: "Source Sans 3", "DejaVu Sans", Arial, sans-serif; font-size: 20px; font-weight: 700; fill: #1F2A35; }
      .box-sub { font-family: "Source Sans 3", "DejaVu Sans", Arial, sans-serif; font-size: 16px; fill: #3C4C58; }
      .arrow { stroke: #2E3A44; stroke-width: 2.2; fill: none; marker-end: url(#arrow); }
    </style>
  </defs>

  <rect x="0" y="0" width="1600" height="1050" fill="url(#bg)"/>
  <circle cx="210" cy="150" r="110" fill="#8FB6C9" opacity="0.08"/>
  <circle cx="1440" cy="900" r="180" fill="#8FB6C9" opacity="0.06"/>
  <circle cx="1480" cy="190" r="90" fill="#8FB6C9" opacity="0.07"/>

  <text x="800" y="90" text-anchor="middle" class="title">EcoMoveAI System Architecture and Evaluation Pipeline</text>
  <text x="260" y="150" text-anchor="middle" class="label">Inputs</text>
  <text x="800" y="150" text-anchor="middle" class="label">Core Evaluation Engine</text>
  <text x="1340" y="150" text-anchor="middle" class="label">Outputs and Interpretation</text>

  <rect x="560" y="210" width="480" height="640" rx="20" fill="#FFFFFF" stroke="#C9D6DF" stroke-width="2" stroke-dasharray="8 8" opacity="0.7"/>

  <rect x="80" y="230" width="360" height="90" rx="14" fill="#FDF2E6" stroke="#E09F3E" stroke-width="3" filter="url(#shadow)"/>
  <text x="260" y="268" text-anchor="middle" class="box-title">Config JSON</text>
  <text x="260" y="292" text-anchor="middle" class="box-sub">
    <tspan x="260" dy="0">Baseline and AI rates</tspan>
    <tspan x="260" dy="20">Policy scenarios</tspan>
  </text>

  <rect x="80" y="350" width="360" height="90" rx="14" fill="#FDF2E6" stroke="#E09F3E" stroke-width="3" filter="url(#shadow)"/>
  <text x="260" y="388" text-anchor="middle" class="box-title">Knowledge Base</text>
  <text x="260" y="412" text-anchor="middle" class="box-sub">Local RAG docs</text>

  <rect x="80" y="470" width="360" height="90" rx="14" fill="#FDF2E6" stroke="#E09F3E" stroke-width="3" filter="url(#shadow)"/>
  <text x="260" y="508" text-anchor="middle" class="box-title">Memory Notes</text>
  <text x="260" y="532" text-anchor="middle" class="box-sub">Policy assumptions</text>

  <rect x="620" y="230" width="360" height="90" rx="14" fill="#E7F0FA" stroke="#2F6690" stroke-width="3" filter="url(#shadow)"/>
  <text x="800" y="268" text-anchor="middle" class="box-title">main.py</text>
  <text x="800" y="292" text-anchor="middle" class="box-sub">Validation and orchestration</text>

  <rect x="620" y="350" width="360" height="90" rx="14" fill="#E7F0FA" stroke="#2F6690" stroke-width="3" filter="url(#shadow)"/>
  <text x="800" y="388" text-anchor="middle" class="box-title">Baseline Model</text>
  <text x="800" y="412" text-anchor="middle" class="box-sub">CO2 and fuel cost</text>

  <rect x="620" y="470" width="360" height="90" rx="14" fill="#E7F0FA" stroke="#2F6690" stroke-width="3" filter="url(#shadow)"/>
  <text x="800" y="508" text-anchor="middle" class="box-title">AI Scenarios</text>
  <text x="800" y="532" text-anchor="middle" class="box-sub">Efficiency rates</text>

  <rect x="620" y="590" width="360" height="90" rx="14" fill="#E7F0FA" stroke="#2F6690" stroke-width="3" filter="url(#shadow)"/>
  <text x="800" y="628" text-anchor="middle" class="box-title">Economics Engine</text>
  <text x="800" y="652" text-anchor="middle" class="box-sub">
    <tspan x="800" dy="0">Policy instruments</tspan>
    <tspan x="800" dy="20">Costs and savings</tspan>
  </text>

  <rect x="620" y="710" width="360" height="90" rx="14" fill="#E7F0FA" stroke="#2F6690" stroke-width="3" filter="url(#shadow)"/>
  <text x="800" y="748" text-anchor="middle" class="box-title">Results Payload</text>
  <text x="800" y="772" text-anchor="middle" class="box-sub">Scenario matrix</text>

  <rect x="1160" y="300" width="360" height="90" rx="14" fill="#E8F5E9" stroke="#2E933C" stroke-width="3" filter="url(#shadow)"/>
  <text x="1340" y="338" text-anchor="middle" class="box-title">Reporting</text>
  <text x="1340" y="362" text-anchor="middle" class="box-sub">CSV and PNG assets</text>

  <rect x="1160" y="430" width="360" height="90" rx="14" fill="#E8F5E9" stroke="#2E933C" stroke-width="3" filter="url(#shadow)"/>
  <text x="1340" y="468" text-anchor="middle" class="box-title">Streamlit Dashboard</text>
  <text x="1340" y="492" text-anchor="middle" class="box-sub">Interactive explorer</text>

  <rect x="1160" y="560" width="360" height="90" rx="14" fill="#F6EDEA" stroke="#B75D69" stroke-width="3" stroke-dasharray="6 6" filter="url(#shadow)"/>
  <text x="1340" y="598" text-anchor="middle" class="box-title">Optional Interpretation</text>
  <text x="1340" y="622" text-anchor="middle" class="box-sub">
    <tspan x="1340" dy="0">LLM summary</tspan>
    <tspan x="1340" dy="20">RAG and memory</tspan>
  </text>

  <rect x="1160" y="700" width="360" height="90" rx="14" fill="#E8F5E9" stroke="#2E933C" stroke-width="3" filter="url(#shadow)"/>
  <text x="1340" y="738" text-anchor="middle" class="box-title">Exports</text>
  <text x="1340" y="762" text-anchor="middle" class="box-sub">results.json and csv</text>

  <line x1="440" y1="275" x2="620" y2="275" class="arrow"/>

  <line x1="800" y1="320" x2="800" y2="350" class="arrow"/>
  <line x1="800" y1="440" x2="800" y2="470" class="arrow"/>
  <line x1="800" y1="560" x2="800" y2="590" class="arrow"/>
  <line x1="800" y1="680" x2="800" y2="710" class="arrow"/>

  <path d="M 980 755 C 1100 710 1180 520 1160 345" class="arrow"/>
  <path d="M 980 755 C 1100 725 1180 600 1160 475" class="arrow"/>
  <path d="M 980 755 C 1080 740 1160 690 1160 605" class="arrow"/>
  <path d="M 980 755 L 1160 745" class="arrow"/>

  <path d="M 440 395 C 720 395 980 520 1160 605" class="arrow"/>
  <path d="M 440 515 C 740 520 1000 600 1160 605" class="arrow"/>

  <rect x="30" y="180" width="1540" height="820" rx="28" fill="none" stroke="#CBD5DF" stroke-width="2"/>
</svg>
